M48
; DRILL file {KiCad (5.1.5)-2} date 10/22/2020 2:23:17 PM
; FORMAT={-:-/ absolute / inch / decimal}
; #@! TF.CreationDate,2020-10-22T14:23:17-05:00
; #@! TF.GenerationSoftware,Kicad,Pcbnew,(5.1.5)-2
; #@! TF.FileFunction,Plated,1,2,PTH
FMAT,2
INCH
T1C0.0157
T2C0.0197
T3C0.0217
T4C0.0394
%
G90
G05
T1
X2.1929Y-2.9488
X2.2323Y-2.6762
X2.2677Y-2.7333
X2.2795Y-2.9567
X2.3937Y-3.0354
X2.3937Y-3.1378
X2.4331Y-2.6535
X2.4331Y-2.7559
X2.4646Y-3.0354
X2.4646Y-3.1378
X2.5354Y-2.6535
X2.5354Y-2.7559
X2.5694Y-2.53
T4
X2.2843Y-2.4488
X2.3843Y-2.4488
X2.4843Y-2.4488
X2.5843Y-2.4488
X2.6843Y-2.4488
X2.6811Y-2.5929
X2.6811Y-2.6929
X2.6811Y-2.7929
X2.6811Y-2.8929
T2
G00X2.0541Y-2.5669
M15
G01X2.0797Y-2.5669
M16
G05
G00X2.0541Y-2.8425
M15
G01X2.0797Y-2.8425
M16
G05
T3
G00X2.1732Y-2.6004
M15
G01X2.1732Y-2.6122
M16
G05
G00X2.1732Y-2.7972
M15
G01X2.1732Y-2.8091
M16
G05
T0
M30
